0
SECTION
2
HEADER
9
$ACADVER
1
AC1009
9
$INSUNITS
70
4
0
ENDSEC
0
SECTION
2
ENTITIES
0
ARC
8
20
10
1.7500
20
1.7500
30
0.0000
40
2.2638
50
186.3402
51
276.3402
0
ARC
8
20
10
1.7500
20
103.2500
30
0.0000
40
2.2638
50
83.6598
51
173.6598
0
LINE
8
20
10
-0.5000
20
103.5000
30
0.0000
11
-0.5000
21
1.5000
31
0.0000
0
ARC
8
20
10
323.5000
20
103.5000
30
0.0000
40
2.0000
50
0.0000
51
90.0000
0
LINE
8
20
10
323.5000
20
105.5000
30
0.0000
11
2.0000
21
105.5000
31
0.0000
0
ARC
8
20
10
323.5000
20
1.5000
30
0.0000
40
2.0000
50
270.0000
51
360.0000
0
LINE
8
20
10
323.5000
20
-0.5000
30
0.0000
11
2.0000
21
-0.5000
31
0.0000
0
LINE
8
20
10
325.5000
20
1.5000
30
0.0000
11
325.5000
21
103.5000
31
0.0000
0
CIRCLE
8
20
10
7.5000
20
7.5000
30
0.0000
40
1.6000
0
CIRCLE
8
20
10
7.5000
20
97.5000
30
0.0000
40
1.6000
0
CIRCLE
8
20
10
317.5000
20
97.5000
30
0.0000
40
1.6000
0
CIRCLE
8
20
10
317.5000
20
7.5000
30
0.0000
40
1.6000
0
CIRCLE
8
20
10
162.5000
20
97.5000
30
0.0000
40
1.6000
0
CIRCLE
8
20
10
162.5000
20
7.5000
30
0.0000
40
1.6000
0
ENDSEC
0
EOF
