0
SECTION
2
HEADER
9
$ACADVER
1
AC1009
9
$INSUNITS
70
4
0
ENDSEC
0
SECTION
2
ENTITIES
0
LINE
8
20
10
0.0000
20
0.0000
30
0.0000
11
0.0000
21
34.2000
31
0.0000
0
LINE
8
20
10
0.0000
20
34.2000
30
0.0000
11
324.0000
21
34.2000
31
0.0000
0
LINE
8
20
10
324.0000
20
34.2000
30
0.0000
11
324.0000
21
0.0000
31
0.0000
0
LINE
8
20
10
324.0000
20
0.0000
30
0.0000
11
0.0000
21
0.0000
31
0.0000
0
ARC
8
20
10
295.9250
20
15.8750
30
0.0000
40
2.4262
50
88.2285
51
178.2285
0
LINE
8
20
10
293.5000
20
15.9500
30
0.0000
11
293.5000
21
15.3500
31
0.0000
0
LINE
8
20
10
296.0000
20
13.0000
30
0.0000
11
303.0000
21
13.0000
31
0.0000
0
LINE
8
20
10
305.5000
20
15.3500
30
0.0000
11
305.5000
21
15.9500
31
0.0000
0
ARC
8
20
10
303.0750
20
15.8750
30
0.0000
40
2.4262
50
1.7715
51
91.7715
0
LINE
8
20
10
303.0000
20
18.3000
30
0.0000
11
296.0000
21
18.3000
31
0.0000
0
ARC
8
20
10
77.7782
20
15.2780
30
0.0000
40
0.5000
50
0.0000
51
90.0000
0
ARC
8
20
10
64.1782
20
15.2780
30
0.0000
40
0.5000
50
90.0000
51
180.0000
0
LINE
8
20
10
63.6782
20
15.2780
30
0.0000
11
63.6782
21
13.9780
31
0.0000
0
ARC
8
20
10
64.1782
20
13.9780
30
0.0000
40
0.5000
50
180.0000
51
270.0000
0
ARC
8
20
10
77.7782
20
13.9780
30
0.0000
40
0.5000
50
270.0000
51
0.0000
0
LINE
8
20
10
78.2782
20
13.9780
30
0.0000
11
78.2782
21
15.2780
31
0.0000
0
LINE
8
20
10
64.1782
20
15.7780
30
0.0000
11
68.9782
21
15.7780
31
0.0000
0
LINE
8
20
10
72.9782
20
15.7780
30
0.0000
11
77.7782
21
15.7780
31
0.0000
0
LINE
8
20
10
77.7782
20
13.4780
30
0.0000
11
72.9782
21
13.4780
31
0.0000
0
LINE
8
20
10
68.9782
20
13.4780
30
0.0000
11
64.1782
21
13.4780
31
0.0000
0
ARC
8
20
10
70.9782
20
14.8280
30
0.0000
40
2.2142
50
25.4077
51
154.5923
0
ARC
8
20
10
70.9782
20
14.4280
30
0.0000
40
2.2142
50
205.4080
51
334.5920
0
ARC
8
20
10
248.0000
20
19.6910
30
0.0000
40
1.0000
50
90.0000
51
180.0000
0
ARC
8
20
10
248.0000
20
16.6910
30
0.0000
40
1.0000
50
180.0000
51
270.0000
0
ARC
8
20
10
255.0000
20
16.6910
30
0.0000
40
1.0000
50
270.0000
51
0.0000
0
ARC
8
20
10
255.0000
20
19.6910
30
0.0000
40
1.0000
50
0.0000
51
90.0000
0
LINE
8
20
10
247.0000
20
19.6910
30
0.0000
11
247.0000
21
16.6910
31
0.0000
0
LINE
8
20
10
248.0000
20
20.6910
30
0.0000
11
255.0000
21
20.6910
31
0.0000
0
LINE
8
20
10
256.0000
20
19.6910
30
0.0000
11
256.0000
21
16.6910
31
0.0000
0
LINE
8
20
10
255.0000
20
15.6910
30
0.0000
11
248.0000
21
15.6910
31
0.0000
0
ARC
8
20
10
303.0750
20
15.4250
30
0.0000
40
2.4262
50
268.2285
51
358.2285
0
ARC
8
20
10
295.9250
20
15.4250
30
0.0000
40
2.4262
50
181.7715
51
271.7715
0
CIRCLE
8
20
10
52.0000
20
16.1000
30
0.0000
40
1.6000
0
CIRCLE
8
20
10
272.0000
20
16.1000
30
0.0000
40
1.6000
0
CIRCLE
8
20
10
162.0000
20
19.1000
30
0.0000
40
1.6000
0
CIRCLE
8
20
10
24.6000
20
16.1000
30
0.0000
40
3.2500
0
CIRCLE
8
20
10
102.0000
20
17.1000
30
0.0000
40
2.1000
0
CIRCLE
8
20
10
222.0000
20
17.1000
30
0.0000
40
2.1000
0
ENDSEC
0
EOF
