0
SECTION
2
HEADER
9
$ACADVER
1
AC1009
9
$INSUNITS
70
4
0
ENDSEC
0
SECTION
2
ENTITIES
0
LINE
8
20
10
0.0000
20
0.0000
30
0.0000
11
100.0000
21
0.0000
31
0.0000
0
LINE
8
20
10
100.0000
20
0.0000
30
0.0000
11
100.0000
21
34.2000
31
0.0000
0
LINE
8
20
10
0.0000
20
0.0000
30
0.0000
11
0.0000
21
34.2000
31
0.0000
0
LINE
8
20
10
100.0000
20
34.2000
30
0.0000
11
0.0000
21
34.2000
31
0.0000
0
CIRCLE
8
20
10
19.8400
20
16.1000
30
0.0000
40
1.6000
0
CIRCLE
8
20
10
79.8400
20
16.1000
30
0.0000
40
1.6000
0
CIRCLE
8
20
10
39.0900
20
16.1000
30
0.0000
40
3.2500
0
CIRCLE
8
20
10
60.5900
20
16.1000
30
0.0000
40
3.2500
0
ENDSEC
0
EOF
