0
SECTION
2
HEADER
9
$ACADVER
1
AC1009
9
$INSUNITS
70
4
0
ENDSEC
0
SECTION
2
ENTITIES
0
LINE
8
20
10
1.5000
20
-0.5000
30
0.0000
11
323.5000
21
-0.5000
31
0.0000
0
LINE
8
20
10
-0.5000
20
103.5000
30
0.0000
11
-0.5000
21
1.5000
31
0.0000
0
LINE
8
20
10
325.5000
20
103.5000
30
0.0000
11
325.5000
21
1.5000
31
0.0000
0
LINE
8
20
10
1.5000
20
105.5000
30
0.0000
11
323.5000
21
105.5000
31
0.0000
0
ARC
8
20
10
1.5000
20
103.5000
30
0.0000
40
2.0000
50
90.0000
51
180.0000
0
ARC
8
20
10
1.5000
20
1.5000
30
0.0000
40
2.0000
50
180.0000
51
270.0000
0
ARC
8
20
10
323.5000
20
1.5000
30
0.0000
40
2.0000
50
270.0000
51
360.0000
0
ARC
8
20
10
323.5000
20
103.5000
30
0.0000
40
2.0000
50
0.0000
51
90.0000
0
ARC
8
20
10
281.5400
20
90.9119
30
0.0000
40
0.4719
50
269.9999
51
354.9105
0
LINE
8
20
10
281.5400
20
90.4400
30
0.0000
11
281.2900
21
90.4400
31
0.0000
0
ARC
8
20
10
281.2900
20
90.9694
30
0.0000
40
0.5294
50
190.8237
51
270.0000
0
LINE
8
20
10
280.7700
20
90.8700
30
0.0000
11
280.7700
21
93.5800
31
0.0000
0
ARC
8
20
10
281.2400
20
93.5270
30
0.0000
40
0.4730
50
89.9999
51
173.5691
0
LINE
8
20
10
281.2400
20
94.0000
30
0.0000
11
281.5800
21
94.0000
31
0.0000
0
ARC
8
20
10
281.5800
20
93.5667
30
0.0000
40
0.4333
50
7.0647
51
89.9999
0
LINE
8
20
10
282.0100
20
93.6200
30
0.0000
11
282.0100
21
90.8700
31
0.0000
0
ARC
8
20
10
290.3500
20
90.9019
30
0.0000
40
0.4719
50
269.9999
51
354.9105
0
LINE
8
20
10
290.3500
20
90.4300
30
0.0000
11
290.1000
21
90.4300
31
0.0000
0
ARC
8
20
10
290.1000
20
90.9594
30
0.0000
40
0.5294
50
190.8237
51
270.0000
0
LINE
8
20
10
289.5800
20
90.8600
30
0.0000
11
289.5800
21
93.5700
31
0.0000
0
ARC
8
20
10
290.0500
20
93.5170
30
0.0000
40
0.4730
50
89.9999
51
173.5691
0
LINE
8
20
10
290.0500
20
93.9900
30
0.0000
11
290.3900
21
93.9900
31
0.0000
0
ARC
8
20
10
290.3900
20
93.5567
30
0.0000
40
0.4333
50
7.0647
51
89.9999
0
LINE
8
20
10
290.8200
20
93.6100
30
0.0000
11
290.8200
21
90.8600
31
0.0000
0
ARC
8
20
10
288.1800
20
88.9119
30
0.0000
40
0.4719
50
269.9999
51
354.9105
0
LINE
8
20
10
288.1800
20
88.4400
30
0.0000
11
287.9300
21
88.4400
31
0.0000
0
ARC
8
20
10
287.9300
20
88.9694
30
0.0000
40
0.5294
50
190.8237
51
270.0000
0
LINE
8
20
10
287.4100
20
88.8700
30
0.0000
11
287.4100
21
95.5800
31
0.0000
0
ARC
8
20
10
287.8800
20
95.5270
30
0.0000
40
0.4730
50
89.9999
51
173.5691
0
LINE
8
20
10
287.8800
20
96.0000
30
0.0000
11
288.2200
21
96.0000
31
0.0000
0
ARC
8
20
10
288.2200
20
95.5667
30
0.0000
40
0.4333
50
7.0647
51
89.9999
0
LINE
8
20
10
288.6500
20
95.6200
30
0.0000
11
288.6500
21
88.8700
31
0.0000
0
ARC
8
20
10
283.6880
20
88.9119
30
0.0000
40
0.4719
50
269.9999
51
354.9105
0
LINE
8
20
10
283.6880
20
88.4400
30
0.0000
11
283.4380
21
88.4400
31
0.0000
0
ARC
8
20
10
283.4380
20
88.9694
30
0.0000
40
0.5294
50
190.8237
51
270.0000
0
LINE
8
20
10
282.9180
20
88.8700
30
0.0000
11
282.9180
21
95.5800
31
0.0000
0
ARC
8
20
10
283.3880
20
95.5270
30
0.0000
40
0.4730
50
89.9999
51
173.5691
0
LINE
8
20
10
283.3880
20
96.0000
30
0.0000
11
283.7280
21
96.0000
31
0.0000
0
ARC
8
20
10
283.7280
20
95.5667
30
0.0000
40
0.4333
50
7.0647
51
89.9999
0
LINE
8
20
10
284.1580
20
95.6200
30
0.0000
11
284.1580
21
88.8700
31
0.0000
0
ARC
8
20
10
285.9300
20
87.6569
30
0.0000
40
0.4719
50
269.9999
51
354.9105
0
LINE
8
20
10
285.9300
20
87.1850
30
0.0000
11
285.6800
21
87.1850
31
0.0000
0
ARC
8
20
10
285.6800
20
87.7144
30
0.0000
40
0.5294
50
190.8237
51
270.0000
0
LINE
8
20
10
285.1600
20
87.6150
30
0.0000
11
285.1640
21
96.8650
31
0.0000
0
ARC
8
20
10
285.6340
20
96.8120
30
0.0000
40
0.4730
50
89.9999
51
173.5691
0
LINE
8
20
10
285.6340
20
97.2850
30
0.0000
11
285.9740
21
97.2850
31
0.0000
0
ARC
8
20
10
285.9740
20
96.8517
30
0.0000
40
0.4333
50
7.0647
51
89.9999
0
LINE
8
20
10
286.4040
20
96.9050
30
0.0000
11
286.4000
21
87.6150
31
0.0000
0
LINE
8
20
10
22.0000
20
52.0000
30
0.0000
11
61.6500
21
52.0000
31
0.0000
0
ARC
8
20
10
61.6500
20
51.5000
30
0.0000
40
0.5000
50
0.0000
51
90.0000
0
LINE
8
20
10
62.1500
20
51.5000
30
0.0000
11
62.1500
21
32.5000
31
0.0000
0
ARC
8
20
10
62.7025
20
32.5000
30
0.0000
40
0.5525
50
180.0000
51
264.5474
0
LINE
8
20
10
62.6500
20
31.9500
30
0.0000
11
81.3500
21
31.9500
31
0.0000
0
ARC
8
20
10
81.3500
20
32.4500
30
0.0000
40
0.5000
50
270.0000
51
0.0000
0
LINE
8
20
10
81.8500
20
32.4500
30
0.0000
11
81.8500
21
51.5000
31
0.0000
0
ARC
8
20
10
82.3500
20
51.5000
30
0.0000
40
0.5000
50
90.0000
51
180.0000
0
LINE
8
20
10
82.3500
20
52.0000
30
0.0000
11
142.1000
21
52.0000
31
0.0000
0
ARC
8
20
10
142.1000
20
51.5000
30
0.0000
40
0.5000
50
0.0000
51
90.0000
0
LINE
8
20
10
142.6000
20
51.5000
30
0.0000
11
142.6000
21
32.5000
31
0.0000
0
ARC
8
20
10
143.1000
20
32.5000
30
0.0000
40
0.5000
50
180.0000
51
270.0000
0
LINE
8
20
10
143.1000
20
32.0000
30
0.0000
11
161.8000
21
32.0000
31
0.0000
0
ARC
8
20
10
161.8000
20
32.5000
30
0.0000
40
0.5000
50
270.0000
51
0.0000
0
LINE
8
20
10
162.3000
20
32.5000
30
0.0000
11
162.3000
21
51.5000
31
0.0000
0
ARC
8
20
10
162.8000
20
51.5000
30
0.0000
40
0.5000
50
90.0000
51
180.0000
0
LINE
8
20
10
162.8000
20
52.0000
30
0.0000
11
202.4000
21
52.0000
31
0.0000
0
ARC
8
20
10
202.4000
20
51.5000
30
0.0000
40
0.5000
50
0.0000
51
90.0000
0
LINE
8
20
10
202.9000
20
51.5000
30
0.0000
11
202.9000
21
32.5000
31
0.0000
0
ARC
8
20
10
203.4000
20
32.5000
30
0.0000
40
0.5000
50
180.0000
51
270.0000
0
LINE
8
20
10
203.4000
20
32.0000
30
0.0000
11
222.1000
21
32.0000
31
0.0000
0
ARC
8
20
10
222.1000
20
32.5000
30
0.0000
40
0.5000
50
270.0000
51
0.0000
0
LINE
8
20
10
222.6000
20
32.5000
30
0.0000
11
222.6000
21
51.5000
31
0.0000
0
ARC
8
20
10
223.1000
20
51.5000
30
0.0000
40
0.5000
50
90.0000
51
180.0000
0
LINE
8
20
10
223.1000
20
52.0000
30
0.0000
11
282.8500
21
52.0000
31
0.0000
0
ARC
8
20
10
282.8500
20
51.5000
30
0.0000
40
0.5000
50
0.0000
51
90.0000
0
LINE
8
20
10
283.3500
20
51.5000
30
0.0000
11
283.3500
21
32.5000
31
0.0000
0
ARC
8
20
10
283.8523
20
32.5000
30
0.0000
40
0.5023
50
180.0000
51
275.4527
0
LINE
8
20
10
283.9000
20
32.0000
30
0.0000
11
313.0500
21
32.0000
31
0.0000
0
ARC
8
20
10
313.0500
20
31.5000
30
0.0000
40
0.5000
50
0.0000
51
90.0000
0
LINE
8
20
10
313.5500
20
31.5000
30
0.0000
11
313.5500
21
11.9500
31
0.0000
0
ARC
8
20
10
313.0500
20
11.9500
30
0.0000
40
0.5000
50
270.0000
51
0.0000
0
LINE
8
20
10
313.0500
20
11.4500
30
0.0000
11
11.9500
21
11.4500
31
0.0000
0
ARC
8
20
10
11.9500
20
11.9500
30
0.0000
40
0.5000
50
180.0000
51
270.0000
0
LINE
8
20
10
11.4500
20
11.9500
30
0.0000
11
11.4500
21
31.5000
31
0.0000
0
ARC
8
20
10
11.9500
20
31.5000
30
0.0000
40
0.5000
50
90.0000
51
180.0000
0
LINE
8
20
10
11.9500
20
32.0000
30
0.0000
11
21.0000
21
32.0000
31
0.0000
0
ARC
8
20
10
21.0000
20
32.5000
30
0.0000
40
0.5000
50
270.0000
51
0.0000
0
LINE
8
20
10
21.5000
20
32.5000
30
0.0000
11
21.5000
21
51.5000
31
0.0000
0
ARC
8
20
10
22.0000
20
51.5000
30
0.0000
40
0.5000
50
90.0000
51
180.0000
0
LINE
8
20
10
19.2500
20
74.8500
30
0.0000
11
23.2500
21
74.8500
31
0.0000
0
ARC
8
20
10
23.2500
20
74.3500
30
0.0000
40
0.5000
50
0.0000
51
90.0000
0
LINE
8
20
10
23.7500
20
74.3500
30
0.0000
11
23.7500
21
67.8500
31
0.0000
0
ARC
8
20
10
23.2500
20
67.8500
30
0.0000
40
0.5000
50
270.0000
51
0.0000
0
LINE
8
20
10
23.2500
20
67.3500
30
0.0000
11
19.2500
21
67.3500
31
0.0000
0
ARC
8
20
10
19.2500
20
67.8500
30
0.0000
40
0.5000
50
180.0000
51
270.0000
0
LINE
8
20
10
18.7500
20
67.8500
30
0.0000
11
18.7500
21
74.4000
31
0.0000
0
ARC
8
20
10
19.2025
20
74.4000
30
0.0000
40
0.4525
50
83.9744
51
180.0000
0
LINE
8
20
10
32.0500
20
81.3500
30
0.0000
11
51.6500
21
81.3500
31
0.0000
0
ARC
8
20
10
51.6500
20
80.8472
30
0.0000
40
0.5028
50
6.0256
51
90.0000
0
LINE
8
20
10
52.1500
20
80.9000
30
0.0000
11
52.1500
21
61.3000
31
0.0000
0
ARC
8
20
10
51.6500
20
61.3000
30
0.0000
40
0.5000
50
270.0000
51
0.0000
0
LINE
8
20
10
51.6500
20
60.8000
30
0.0000
11
32.0500
21
60.8000
31
0.0000
0
ARC
8
20
10
32.0500
20
61.3000
30
0.0000
40
0.5000
50
180.0000
51
270.0000
0
LINE
8
20
10
31.5500
20
61.3000
30
0.0000
11
31.5500
21
80.8500
31
0.0000
0
ARC
8
20
10
32.0500
20
80.8500
30
0.0000
40
0.5000
50
90.0000
51
180.0000
0
LINE
8
20
10
233.1500
20
81.2500
30
0.0000
11
272.8000
21
81.2500
31
0.0000
0
ARC
8
20
10
272.8000
20
80.7500
30
0.0000
40
0.5000
50
0.0000
51
90.0000
0
LINE
8
20
10
273.3000
20
80.7500
30
0.0000
11
273.3000
21
61.2500
31
0.0000
0
ARC
8
20
10
272.8000
20
61.2500
30
0.0000
40
0.5000
50
270.0000
51
0.0000
0
LINE
8
20
10
272.8000
20
60.7500
30
0.0000
11
233.1500
21
60.7500
31
0.0000
0
ARC
8
20
10
233.1500
20
61.2500
30
0.0000
40
0.5000
50
180.0000
51
270.0000
0
LINE
8
20
10
232.6500
20
61.2500
30
0.0000
11
232.6500
21
80.7500
31
0.0000
0
ARC
8
20
10
233.1500
20
80.7500
30
0.0000
40
0.5000
50
90.0000
51
180.0000
0
CIRCLE
8
20
10
72.0000
20
71.3500
30
0.0000
40
3.8500
0
CIRCLE
8
20
10
105.5000
20
71.3600
30
0.0000
40
3.8500
0
CIRCLE
8
20
10
139.0550
20
71.3600
30
0.0000
40
3.8500
0
CIRCLE
8
20
10
172.5730
20
71.3600
30
0.0000
40
3.8500
0
CIRCLE
8
20
10
303.2840
20
71.3600
30
0.0000
40
3.8500
0
CIRCLE
8
20
10
7.5000
20
97.5000
30
0.0000
40
1.6000
0
CIRCLE
8
20
10
7.5000
20
7.5000
30
0.0000
40
1.6000
0
CIRCLE
8
20
10
317.5000
20
97.5000
30
0.0000
40
1.6000
0
CIRCLE
8
20
10
317.5000
20
7.5000
30
0.0000
40
1.6000
0
CIRCLE
8
20
10
303.2830
20
92.1960
30
0.0000
40
4.2000
0
CIRCLE
8
20
10
172.5730
20
92.1960
30
0.0000
40
4.2000
0
CIRCLE
8
20
10
139.0550
20
92.1960
30
0.0000
40
4.2000
0
CIRCLE
8
20
10
105.5360
20
92.1960
30
0.0000
40
4.2000
0
CIRCLE
8
20
10
72.0180
20
92.1960
30
0.0000
40
4.2000
0
CIRCLE
8
20
10
41.8560
20
92.1960
30
0.0000
40
4.2000
0
CIRCLE
8
20
10
72.0000
20
41.7460
30
0.0000
40
1.6000
0
CIRCLE
8
20
10
152.4460
20
41.7460
30
0.0000
40
1.6000
0
CIRCLE
8
20
10
212.7780
20
41.7460
30
0.0000
40
1.6000
0
CIRCLE
8
20
10
152.4460
20
7.5060
30
0.0000
40
1.6000
0
CIRCLE
8
20
10
202.7450
20
94.5060
30
0.0000
40
2.5500
0
CIRCLE
8
20
10
222.8560
20
94.5060
30
0.0000
40
2.5500
0
CIRCLE
8
20
10
242.9670
20
94.5060
30
0.0000
40
2.5500
0
CIRCLE
8
20
10
263.0780
20
94.5060
30
0.0000
40
2.5500
0
CIRCLE
8
20
10
212.7950
20
71.3600
30
0.0000
40
17.7500
0
ENDSEC
0
EOF
