0
SECTION
2
HEADER
9
$ACADVER
1
AC1009
9
$INSUNITS
70
4
0
ENDSEC
0
SECTION
2
ENTITIES
0
LINE
8
20
10
0.0000
20
0.0000
30
0.0000
11
0.0000
21
33.2000
31
0.0000
0
LINE
8
20
10
0.0000
20
33.2000
30
0.0000
11
324.0000
21
33.2000
31
0.0000
0
LINE
8
20
10
324.0000
20
33.2000
30
0.0000
11
324.0000
21
0.0000
31
0.0000
0
LINE
8
20
10
324.0000
20
0.0000
30
0.0000
11
0.0000
21
0.0000
31
0.0000
0
CIRCLE
8
20
10
52.0000
20
16.1000
30
0.0000
40
1.6000
0
CIRCLE
8
20
10
272.0000
20
16.1000
30
0.0000
40
1.6000
0
CIRCLE
8
20
10
162.0000
20
19.1000
30
0.0000
40
1.6000
0
ENDSEC
0
EOF
